# xmcd
#
# Track frame offsets: 
#        150
#        11135
#        20478
#        29737
#        43143
#        55690
#        67532
#        79297
#        90227
#        104208
#        114911
#        124908
#        134173
#        143217
#        154486
#        166135
#        175523
#
# Disc length: 2458 seconds
#
# Revision: 0
# Processed by: cddbd v1.5.2PL0 Copyright (c) Steve Scherf et al.
# Submitted via: ExactAudioCopyFreeDBPlugin 1.0
#
DISCID=e7099811
DTITLE=The Exciters - Tell Him
DYEAR=2015
DGENRE=Rhythm and Blues
TTITLE0=He's Got the Power
TTITLE1=Get Him Alone
TTITLE2=I Dreamed
TTITLE3=It's Love that Really Counts
TTITLE4=Are You Keeping Score
TTITLE5=Tell Him
TTITLE6=Say It With Love
TTITLE7=Drama of Love
TTITLE8=Hard Way to Go
TTITLE9=Remember Me
TTITLE10=So Long, Goodnight
TTITLE11=Handful of Memories
TTITLE12=It's So Exciting
TTITLE13=Do-Wah-Diddy
TTITLE14=If Love Came Your Way
TTITLE15=We Were Lovers (When The Party Began)
TTITLE16=Having My Fun
EXTD=
EXTT0=
EXTT1=
EXTT2=
EXTT3=
EXTT4=
EXTT5=
EXTT6=
EXTT7=
EXTT8=
EXTT9=
EXTT10=
EXTT11=
EXTT12=
EXTT13=
EXTT14=
EXTT15=
EXTT16=
PLAYORDER=
